<svg version="1.1" id="Layer_1" xmlns="http://www.w3.org/2000/svg" xmlns:xlink="http://www.w3.org/1999/xlink" x="0px" y="0px"
	 width="100%" viewBox="0 0 300 300" enable-background="new 0 0 300 300" xml:space="preserve">
<path fill="#000000" opacity="1.000000" stroke="none" 
	d="
M174.000000,301.000000 
	C116.000008,301.000000 58.500019,301.000000 1.000023,301.000000 
	C1.000015,201.000031 1.000015,101.000053 1.000008,1.000063 
	C100.999947,1.000042 200.999893,1.000042 300.999878,1.000021 
	C300.999939,100.999939 300.999939,200.999878 300.999969,300.999908 
	C258.833344,301.000000 216.666672,301.000000 174.000000,301.000000 
M46.479660,58.075733 
	C46.276016,58.379658 46.072376,58.683586 45.357430,59.187103 
	C44.902412,59.745312 44.447395,60.303524 43.377922,61.128403 
	C42.881096,62.076054 42.384274,63.023708 41.988361,63.994057 
	C41.988361,63.994057 42.010998,63.893135 41.483322,64.083221 
	C41.290314,64.392441 41.097305,64.701653 40.982178,64.991997 
	C40.982178,64.991997 40.963196,64.914139 40.357601,65.175224 
	C39.872646,66.109528 39.387691,67.043831 38.995155,67.997711 
	C38.995155,67.997711 39.014702,67.905289 38.496738,68.097130 
	C38.295021,68.395805 38.093300,68.694481 37.452412,69.131027 
	C37.172447,69.310768 37.019962,69.566513 36.503773,70.109352 
	C36.401268,70.423431 36.298763,70.737503 36.041153,71.438850 
	C36.041153,71.438850 35.991467,71.853050 35.392349,72.152763 
	C34.884823,73.095184 34.377293,74.037613 33.250919,75.268517 
	C20.322981,94.769051 12.987767,116.382050 11.301947,139.519897 
	C10.432745,151.449661 11.470511,163.713074 13.206168,175.597992 
	C16.992002,201.521500 28.858084,223.966568 46.089035,243.413467 
	C64.100868,263.741699 86.069405,278.259857 112.595070,285.129761 
	C120.616341,287.207214 128.811371,288.994781 137.035934,289.798492 
	C145.164978,290.592834 153.445663,290.268280 161.634003,289.884094 
	C168.001770,289.585358 174.476059,289.050201 180.650818,287.568848 
	C211.107986,280.261963 237.000885,265.396729 257.416504,241.183929 
	C268.965271,227.487152 277.537689,212.379776 283.277191,195.455414 
	C290.869232,173.068466 293.021088,150.221619 288.789368,127.042068 
	C285.005615,106.316460 277.492493,86.905411 264.935669,69.733086 
	C251.906631,51.914902 235.645447,37.702053 216.288040,27.153114 
	C211.067642,24.308220 205.323212,22.424927 199.745438,19.346819 
	C197.834930,18.865574 195.924408,18.384329 194.016098,17.971210 
	C194.016098,17.971210 194.083740,17.962946 193.689133,17.301916 
	C190.120178,16.587936 186.551208,15.873957 182.235092,15.036077 
	C181.103363,14.707047 179.971619,14.378017 178.605804,13.266071 
	C175.052673,12.906023 171.499542,12.545975 167.353958,12.052219 
	C166.949371,12.042888 166.544785,12.033557 165.595520,11.324726 
	C156.454514,11.215175 147.310440,10.931689 138.174179,11.092118 
	C135.052399,11.146935 131.950211,12.315883 128.151917,13.335012 
	C123.069542,14.255266 117.749123,14.512866 112.954819,16.235052 
	C103.262489,19.716681 93.814026,23.896986 84.354126,27.994915 
	C81.120132,29.395847 78.152824,31.412436 74.498962,33.080124 
	C74.296631,33.383896 74.094307,33.687668 73.993912,34.007141 
	C73.993912,34.007141 74.009628,33.905209 73.460175,34.059280 
	C73.271255,34.375813 73.082329,34.692345 73.001183,34.971504 
	C73.001183,34.971504 72.963753,34.863750 72.309280,34.970886 
	C71.510590,35.635902 70.711899,36.300915 69.978867,36.971684 
	C69.978867,36.971684 69.972366,36.906082 69.299454,37.029575 
	C67.813171,38.348618 66.326897,39.667664 64.460068,41.029987 
	C64.460068,41.029987 64.100365,41.161522 63.452133,41.137444 
	C62.605984,42.079315 61.759834,43.021187 60.990513,43.982418 
	C60.990513,43.982418 61.009777,43.905567 60.477634,44.082344 
	C60.286568,44.392029 60.095501,44.701714 60.011986,45.013012 
	C60.011986,45.013012 60.013691,44.905464 59.482025,45.079178 
	C59.280968,45.382694 59.079910,45.686211 58.448818,46.133808 
	C58.176395,46.311951 58.022675,46.562828 57.460712,47.077408 
	C57.274986,47.389999 57.089260,47.702591 57.013672,48.013096 
	C57.013672,48.013096 57.011696,47.902958 56.471489,48.074722 
	C56.275654,48.386871 56.079823,48.699017 55.982643,48.984924 
	C55.982643,48.984924 55.956284,48.886303 55.267357,49.008266 
	C53.469852,50.989307 51.672348,52.970345 49.978691,54.981747 
	C49.978691,54.981747 50.008919,54.877853 49.469959,55.065536 
	C49.278088,55.381649 49.086216,55.697762 49.012669,56.009232 
	C49.012669,56.009232 49.008114,55.890900 48.474525,56.074646 
	C48.284458,56.387058 48.094391,56.699474 48.010906,57.010418 
	C48.010906,57.010418 48.009518,56.903824 47.474751,57.077953 
	C47.284561,57.389015 47.094372,57.700077 47.012032,58.013874 
	C47.012032,58.013874 47.014870,57.906029 46.479660,58.075733 
z"/>
<path fill="#4ABB95" opacity="1.000000" stroke="none" 
	d="
M43.992378,60.861732 
	C44.447395,60.303524 44.902412,59.745312 45.820156,58.924492 
	C46.526878,58.409927 46.770874,58.157978 47.014870,57.906029 
	C47.014870,57.906029 47.012032,58.013874 47.158180,57.843994 
	C47.539387,57.417347 47.774452,57.160583 48.009514,56.903824 
	C48.009518,56.903824 48.010906,57.010418 48.157501,56.840378 
	C48.538769,56.410522 48.773441,56.150711 49.008114,55.890900 
	C49.008114,55.890900 49.012669,56.009232 49.153008,55.835907 
	C49.531868,55.401009 49.770393,55.139431 50.008919,54.877853 
	C50.008919,54.877853 49.978691,54.981747 50.270828,54.883865 
	C52.360737,52.819424 54.158508,50.852863 55.956284,48.886299 
	C55.956284,48.886303 55.982643,48.984924 56.136261,48.828438 
	C56.530483,48.415619 56.771091,48.159290 57.011696,47.902962 
	C57.011696,47.902958 57.013672,48.013096 57.154884,47.841228 
	C57.526615,47.408386 57.757133,47.147411 57.987656,46.886436 
	C58.022675,46.562828 58.176395,46.311951 58.867916,45.897224 
	C59.529240,45.408916 59.771469,45.157192 60.013695,44.905464 
	C60.013691,44.905464 60.011986,45.013012 60.157066,44.842548 
	C60.538025,44.416580 60.773899,44.161072 61.009777,43.905567 
	C61.009777,43.905567 60.990513,43.982418 61.285233,43.927689 
	C62.420094,42.969143 63.260227,42.065334 64.100365,41.161522 
	C64.100365,41.161522 64.460068,41.029987 65.015533,40.973221 
	C67.038132,39.579662 68.505249,38.242874 69.972366,36.906082 
	C69.972366,36.906082 69.978867,36.971684 70.276520,36.924004 
	C71.370697,36.205467 72.167229,35.534611 72.963753,34.863750 
	C72.963753,34.863750 73.001183,34.971504 73.149277,34.823277 
	C73.534798,34.418438 73.772217,34.161823 74.009628,33.905212 
	C74.009628,33.905209 73.993912,34.007141 74.151459,33.877686 
	C74.580704,33.573391 74.832260,33.373226 75.063675,33.147736 
	C78.152824,31.412436 81.120132,29.395847 84.354126,27.994915 
	C93.814026,23.896986 103.262489,19.716681 112.954819,16.235052 
	C117.749123,14.512866 123.069542,14.255266 128.966446,13.166820 
	C141.900711,12.673827 154.020462,12.349027 166.140198,12.024226 
	C166.544785,12.033557 166.949371,12.042888 167.928818,12.372896 
	C171.949081,13.145377 175.394485,13.597182 178.839890,14.048986 
	C179.971619,14.378017 181.103363,14.707047 182.896347,15.308145 
	C187.066315,16.374456 190.575027,17.168701 194.083740,17.962944 
	C194.083740,17.962946 194.016098,17.971210 194.191772,18.245899 
	C196.184723,19.047138 198.002029,19.573689 199.819321,20.100239 
	C205.323212,22.424927 211.067642,24.308220 216.288040,27.153114 
	C235.645447,37.702053 251.906631,51.914902 264.935669,69.733086 
	C277.492493,86.905411 285.005615,106.316460 288.789368,127.042068 
	C293.021088,150.221619 290.869232,173.068466 283.277191,195.455414 
	C277.537689,212.379776 268.965271,227.487152 257.416504,241.183929 
	C237.000885,265.396729 211.107986,280.261963 180.650818,287.568848 
	C174.476059,289.050201 168.001770,289.585358 161.634003,289.884094 
	C153.445663,290.268280 145.164978,290.592834 137.035934,289.798492 
	C128.811371,288.994781 120.616341,287.207214 112.595070,285.129761 
	C86.069405,278.259857 64.100868,263.741699 46.089035,243.413467 
	C28.858084,223.966568 16.992002,201.521500 13.206168,175.597992 
	C11.470511,163.713074 10.432745,151.449661 11.301947,139.519897 
	C12.987767,116.382050 20.322981,94.769051 33.861462,74.977127 
	C34.978493,73.741501 35.484978,72.797279 35.991463,71.853050 
	C35.991467,71.853050 36.041153,71.438850 36.270664,71.065552 
	C36.691849,70.444260 36.856777,70.179596 36.994961,69.898270 
	C37.019962,69.566513 37.172447,69.310768 37.874779,68.897392 
	C38.536331,68.410934 38.775517,68.158112 39.014702,67.905289 
	C39.014702,67.905289 38.995155,67.997711 39.243874,67.843109 
	C39.982792,66.763725 40.472996,65.838928 40.963196,64.914139 
	C40.963196,64.914139 40.982178,64.991997 41.142509,64.829681 
	C41.538895,64.409294 41.774944,64.151215 42.010998,63.893135 
	C42.010998,63.893135 41.988361,63.994057 42.237061,63.835964 
	C42.987961,62.739159 43.490170,61.800442 43.992378,60.861732 
M213.748489,183.612900 
	C214.840622,182.370117 215.890121,181.086609 217.032089,179.891449 
	C222.568314,174.097183 225.239700,167.871109 221.511230,159.812500 
	C219.659760,155.810730 218.959335,151.276413 217.795303,146.302887 
	C217.511963,145.209213 217.228607,144.115540 217.457367,142.496780 
	C230.803513,138.330856 244.160339,134.198502 257.484467,129.963318 
	C259.518402,129.316818 261.401123,128.194458 263.353760,127.292198 
	C263.299377,126.818039 263.245026,126.343880 263.190643,125.869713 
	C261.460999,125.071861 259.796448,124.062012 257.991974,123.507629 
	C225.680405,113.580666 193.350174,103.714485 161.028488,93.820412 
	C154.645691,91.866547 148.249725,91.634468 141.840195,93.593643 
	C108.876999,103.669350 75.914597,113.747765 42.974216,123.897606 
	C41.454189,124.365959 40.148586,125.530205 37.634624,127.032959 
	C40.849384,128.420517 42.707554,129.427582 44.687412,130.043365 
	C56.294369,133.653366 67.951584,137.103577 79.531136,140.797958 
	C81.194016,141.328491 82.528618,142.887985 83.706253,144.516449 
	C83.580818,145.328659 83.455383,146.140869 82.991608,147.664154 
	C82.137932,150.705933 81.736885,153.973587 80.351341,156.749954 
	C74.693886,168.086456 79.485039,176.427963 87.630562,183.958466 
	C89.095970,185.313248 90.530777,186.713379 92.093079,187.949280 
	C109.967514,202.089340 130.642136,206.722824 153.839111,205.907883 
	C170.917191,205.788025 186.966400,201.814987 201.905563,193.949829 
	C201.886505,195.758011 201.969086,197.574127 201.828766,199.372849 
	C201.452972,204.189911 204.921875,204.278625 208.099731,204.317612 
	C211.220978,204.355942 214.299820,203.835587 214.072525,199.512360 
	C213.802902,194.383820 213.501602,189.256943 213.748489,183.612900 
z"/>
<path fill="#63B196" opacity="1.000000" stroke="none" 
	d="
M165.867859,11.674477 
	C154.020462,12.349027 141.900711,12.673827 129.310028,12.987206 
	C131.950211,12.315883 135.052399,11.146935 138.174179,11.092118 
	C147.310440,10.931689 156.454514,11.215175 165.867859,11.674477 
z"/>
<path fill="#5CB094" opacity="1.000000" stroke="none" 
	d="
M55.611816,48.947281 
	C54.158508,50.852863 52.360737,52.819424 50.218903,54.868683 
	C51.672348,52.970345 53.469852,50.989307 55.611816,48.947281 
z"/>
<path fill="#60AE94" opacity="1.000000" stroke="none" 
	d="
M193.886444,17.632431 
	C190.575027,17.168701 187.066315,16.374456 183.269928,15.370094 
	C186.551208,15.873957 190.120178,16.587936 193.886444,17.632431 
z"/>
<path fill="#63B196" opacity="1.000000" stroke="none" 
	d="
M178.722839,13.657529 
	C175.394485,13.597182 171.949081,13.145377 168.225037,12.439751 
	C171.499542,12.545975 175.052673,12.906023 178.722839,13.657529 
z"/>
<path fill="#5FB094" opacity="1.000000" stroke="none" 
	d="
M69.635910,36.967831 
	C68.505249,38.242874 67.038132,39.579662 65.205811,40.951580 
	C66.326897,39.667664 67.813171,38.348618 69.635910,36.967831 
z"/>
<path fill="#60AE94" opacity="1.000000" stroke="none" 
	d="
M199.782379,19.723530 
	C198.002029,19.573689 196.184723,19.047138 194.190674,18.211838 
	C195.924408,18.384329 197.834930,18.865574 199.782379,19.723530 
z"/>
<path fill="#5CB094" opacity="1.000000" stroke="none" 
	d="
M63.776249,41.149483 
	C63.260227,42.065334 62.420094,42.969143 61.246822,43.918007 
	C61.759834,43.021187 62.605984,42.079315 63.776249,41.149483 
z"/>
<path fill="#5CB094" opacity="1.000000" stroke="none" 
	d="
M35.691906,72.002907 
	C35.484978,72.797279 34.978493,73.741501 34.170883,74.832886 
	C34.377293,74.037613 34.884823,73.095184 35.691906,72.002907 
z"/>
<path fill="#5CB094" opacity="1.000000" stroke="none" 
	d="
M40.660400,65.044678 
	C40.472996,65.838928 39.982792,66.763725 39.197662,67.833328 
	C39.387691,67.043831 39.872646,66.109528 40.660400,65.044678 
z"/>
<path fill="#5CB094" opacity="1.000000" stroke="none" 
	d="
M43.685150,60.995064 
	C43.490170,61.800442 42.987961,62.739159 42.186604,63.824615 
	C42.384274,63.023708 42.881096,62.076054 43.685150,60.995064 
z"/>
<path fill="#5FB094" opacity="1.000000" stroke="none" 
	d="
M72.636520,34.917320 
	C72.167229,35.534611 71.370697,36.205467 70.243683,36.921127 
	C70.711899,36.300915 71.510590,35.635902 72.636520,34.917320 
z"/>
<path fill="#5CB094" opacity="1.000000" stroke="none" 
	d="
M49.739441,54.971695 
	C49.770393,55.139431 49.531868,55.401009 49.093842,55.838226 
	C49.086216,55.697762 49.278088,55.381649 49.739441,54.971695 
z"/>
<path fill="#5FB094" opacity="1.000000" stroke="none" 
	d="
M74.781319,33.113930 
	C74.832260,33.373226 74.580704,33.573391 74.100487,33.869835 
	C74.094307,33.687668 74.296631,33.383896 74.781319,33.113930 
z"/>
<path fill="#5FB094" opacity="1.000000" stroke="none" 
	d="
M73.734909,33.982246 
	C73.772217,34.161823 73.534798,34.418438 73.095398,34.841965 
	C73.082329,34.692345 73.271255,34.375813 73.734909,33.982246 
z"/>
<path fill="#5CB094" opacity="1.000000" stroke="none" 
	d="
M60.743706,43.993958 
	C60.773899,44.161072 60.538025,44.416580 60.103291,44.841743 
	C60.095501,44.701714 60.286568,44.392029 60.743706,43.993958 
z"/>
<path fill="#5CB094" opacity="1.000000" stroke="none" 
	d="
M59.747860,44.992325 
	C59.771469,45.157192 59.529240,45.408916 59.082932,45.825188 
	C59.079910,45.686211 59.280968,45.382694 59.747860,44.992325 
z"/>
<path fill="#5CB094" opacity="1.000000" stroke="none" 
	d="
M57.724182,46.981922 
	C57.757133,47.147411 57.526615,47.408386 57.099815,47.842270 
	C57.089260,47.702591 57.274986,47.389999 57.724182,46.981922 
z"/>
<path fill="#5CB094" opacity="1.000000" stroke="none" 
	d="
M56.741592,47.988842 
	C56.771091,48.159290 56.530483,48.415619 56.086937,48.841557 
	C56.079823,48.699017 56.275654,48.386871 56.741592,47.988842 
z"/>
<path fill="#5CB094" opacity="1.000000" stroke="none" 
	d="
M38.755722,68.001205 
	C38.775517,68.158112 38.536331,68.410934 38.094364,68.828461 
	C38.093300,68.694481 38.295021,68.395805 38.755722,68.001205 
z"/>
<path fill="#5CB094" opacity="1.000000" stroke="none" 
	d="
M48.741318,55.982773 
	C48.773441,56.150711 48.538769,56.410522 48.104210,56.841110 
	C48.094391,56.699474 48.284458,56.387058 48.741318,55.982773 
z"/>
<path fill="#5CB094" opacity="1.000000" stroke="none" 
	d="
M47.742134,56.990887 
	C47.774452,57.160583 47.539387,57.417347 47.104256,57.842625 
	C47.094372,57.700077 47.284561,57.389015 47.742134,56.990887 
z"/>
<path fill="#5CB094" opacity="1.000000" stroke="none" 
	d="
M46.747265,57.990883 
	C46.770874,58.157978 46.526878,58.409927 46.075806,58.824692 
	C46.072376,58.683586 46.276016,58.379658 46.747265,57.990883 
z"/>
<path fill="#5CB094" opacity="1.000000" stroke="none" 
	d="
M41.747162,63.988178 
	C41.774944,64.151215 41.538895,64.409294 41.103569,64.839127 
	C41.097305,64.701653 41.290314,64.392441 41.747162,63.988178 
z"/>
<path fill="#5CB094" opacity="1.000000" stroke="none" 
	d="
M36.749367,70.003815 
	C36.856777,70.179596 36.691849,70.444260 36.348217,70.871918 
	C36.298763,70.737503 36.401268,70.423431 36.749367,70.003815 
z"/>
<path fill="#283733" opacity="1.000000" stroke="none" 
	d="
M84.015144,143.971283 
	C82.528618,142.887985 81.194016,141.328491 79.531136,140.797958 
	C67.951584,137.103577 56.294369,133.653366 44.687412,130.043365 
	C42.707554,129.427582 40.849384,128.420517 37.634624,127.032959 
	C40.148586,125.530205 41.454189,124.365959 42.974216,123.897606 
	C75.914597,113.747765 108.876999,103.669350 141.840195,93.593643 
	C148.249725,91.634468 154.645691,91.866547 161.028488,93.820412 
	C193.350174,103.714485 225.680405,113.580666 257.991974,123.507629 
	C259.796448,124.062012 261.460999,125.071861 263.190643,125.869713 
	C263.245026,126.343880 263.299377,126.818039 263.353760,127.292198 
	C261.401123,128.194458 259.518402,129.316818 257.484467,129.963318 
	C244.160339,134.198502 230.803513,138.330856 216.812744,142.793777 
	C213.837753,143.426437 211.507370,143.762100 208.881744,143.861008 
	C202.879425,142.101974 197.172363,140.579681 191.227615,139.086899 
	C190.665787,139.094757 190.360703,139.006927 189.903976,138.552002 
	C188.486115,137.498413 187.324310,136.500244 185.978165,136.032074 
	C175.639008,132.436172 165.288788,128.866867 154.876755,125.490562 
	C153.058731,124.901031 150.845062,124.875465 148.979919,125.306625 
	C147.624664,125.619919 145.494598,127.210075 145.571533,128.063019 
	C145.704590,129.538025 146.988892,131.616211 148.309204,132.144623 
	C152.279053,133.733398 156.490814,134.726303 160.623825,135.896500 
	C165.394638,137.247269 170.147034,138.690338 174.973221,139.809753 
	C178.952133,140.732635 183.026962,141.242035 187.027832,141.934601 
	C186.996399,141.934525 187.023071,141.877594 187.237091,142.163589 
	C191.488037,143.609756 195.524933,144.769943 199.564423,145.836945 
	C199.567017,145.743774 199.753372,145.748184 199.905487,146.003326 
	C200.299652,146.787109 200.541702,147.315735 200.395813,147.880463 
	C187.589371,151.576736 175.142899,155.145386 162.763489,158.933273 
	C155.935486,161.022537 149.221283,161.821320 142.224304,159.662949 
	C125.415428,154.477859 108.570824,149.404953 91.686050,144.473679 
	C89.284973,143.772446 86.579651,144.112930 84.015144,143.971283 
z"/>
<path fill="#283634" opacity="1.000000" stroke="none" 
	d="
M152.941681,205.799683 
	C130.642136,206.722824 109.967514,202.089340 92.093079,187.949280 
	C90.530777,186.713379 89.095970,185.313248 87.630562,183.958466 
	C79.485039,176.427963 74.693886,168.086456 80.351341,156.749954 
	C81.736885,153.973587 82.137932,150.705933 83.553040,147.307343 
	C95.468163,150.044159 106.797447,153.231339 118.182693,156.204117 
	C128.737244,158.960007 139.351593,161.486816 149.949219,164.575867 
	C149.974976,176.523209 149.844559,188.012939 150.139221,199.491730 
	C150.193787,201.616959 151.963562,203.698166 152.941681,205.799683 
z"/>
<path fill="#232D2B" opacity="1.000000" stroke="none" 
	d="
M153.390396,205.853790 
	C151.963562,203.698166 150.193787,201.616959 150.139221,199.491730 
	C149.844559,188.012939 149.974976,176.523209 150.401276,164.550201 
	C155.702164,163.175140 160.658371,162.641144 165.400192,161.331177 
	C178.336090,157.757538 191.181488,153.856384 204.240662,150.444275 
	C204.320572,158.317444 204.222565,165.831299 204.124084,173.503845 
	C204.123611,173.662537 203.998322,173.955078 203.808197,174.325638 
	C203.487183,177.701752 203.356323,180.707306 203.257599,183.711441 
	C203.289719,183.710022 203.283386,183.774033 203.061264,184.052216 
	C202.803589,186.552780 202.768051,188.775192 202.753479,191.215286 
	C202.434006,191.993286 202.093567,192.553589 201.753113,193.113892 
	C186.966400,201.814987 170.917191,205.788025 153.390396,205.853790 
z"/>
<path fill="#18201F" opacity="1.000000" stroke="none" 
	d="
M204.062744,150.084961 
	C191.181488,153.856384 178.336090,157.757538 165.400192,161.331177 
	C160.658371,162.641144 155.702164,163.175140 150.391693,164.088806 
	C139.351593,161.486816 128.737244,158.960007 118.182693,156.204117 
	C106.797447,153.231339 95.468163,150.044159 83.722206,146.951797 
	C83.455383,146.140869 83.580818,145.328659 83.860703,144.243866 
	C86.579651,144.112930 89.284973,143.772446 91.686050,144.473679 
	C108.570824,149.404953 125.415428,154.477859 142.224304,159.662949 
	C149.221283,161.821320 155.935486,161.022537 162.763489,158.933273 
	C175.142899,155.145386 187.589371,151.576736 200.671753,148.075928 
	C202.244690,148.851837 203.153717,149.468399 204.062744,150.084961 
z"/>
<path fill="#233129" opacity="1.000000" stroke="none" 
	d="
M217.738174,146.983017 
	C218.959335,151.276413 219.659760,155.810730 221.511230,159.812500 
	C225.239700,167.871109 222.568314,174.097183 217.032089,179.891449 
	C215.890121,181.086609 214.840622,182.370117 213.160736,183.682053 
	C211.741257,182.426285 210.909531,181.101349 210.258026,179.547470 
	C212.018661,176.841019 212.609039,174.416916 209.925720,171.808807 
	C209.616898,170.988678 209.434662,170.522263 209.372742,169.599335 
	C209.650894,162.456650 209.808731,155.770477 210.291534,148.917755 
	C212.990372,148.161819 215.364273,147.572418 217.738174,146.983017 
z"/>
<path fill="#AD993C" opacity="1.000000" stroke="none" 
	d="
M210.077789,179.776413 
	C210.909531,181.101349 211.741257,182.426285 212.893524,183.940277 
	C213.501602,189.256943 213.802902,194.383820 214.072525,199.512360 
	C214.299820,203.835587 211.220978,204.355942 208.099731,204.317612 
	C204.921875,204.278625 201.452972,204.189911 201.828766,199.372849 
	C201.969086,197.574127 201.886505,195.758011 201.829346,193.531860 
	C202.093567,192.553589 202.434006,191.993286 202.845642,190.776184 
	C203.039032,188.004272 203.161209,185.889160 203.283386,183.774033 
	C203.283386,183.774033 203.289719,183.710022 203.531525,183.487335 
	C204.468948,181.825760 205.164536,180.386887 205.891373,178.530579 
	C205.948349,176.150574 205.974075,174.188004 206.133331,171.964661 
	C206.349426,171.140305 206.432022,170.576721 206.856979,170.019424 
	C207.883698,170.035767 208.568069,170.045807 209.252426,170.055847 
	C209.434662,170.522263 209.616898,170.988678 209.913422,172.208832 
	C210.044418,175.233856 210.061111,177.505127 210.077789,179.776413 
z"/>
<path fill="#17221A" opacity="1.000000" stroke="none" 
	d="
M217.766739,146.642944 
	C215.364273,147.572418 212.990372,148.161819 210.192169,148.571777 
	C209.517471,147.236786 209.267059,146.081253 209.060562,144.719452 
	C209.104477,144.513214 209.177002,144.097763 209.177002,144.097763 
	C211.507370,143.762100 213.837753,143.426437 216.556702,143.056320 
	C217.228607,144.115540 217.511963,145.209213 217.766739,146.642944 
z"/>
<path fill="#97884A" opacity="1.000000" stroke="none" 
	d="
M209.016647,144.925705 
	C209.267059,146.081253 209.517471,147.236786 209.867233,148.738312 
	C209.808731,155.770477 209.650894,162.456650 209.372742,169.599335 
	C208.568069,170.045807 207.883698,170.035767 206.657562,169.665009 
	C206.054810,163.865433 205.427002,158.356216 206.090836,153.007309 
	C206.766830,147.560257 204.544189,145.830246 199.753372,145.748184 
	C199.753372,145.748184 199.567017,145.743774 199.289749,145.557632 
	C195.016006,144.206863 191.019531,143.042236 187.023071,141.877594 
	C187.023071,141.877594 186.996399,141.934525 186.777100,141.673248 
	C176.928543,138.243332 167.299255,135.074661 157.669983,131.906006 
	C157.882156,131.182358 158.094330,130.458710 158.306503,129.735062 
	C168.895889,132.774353 179.485260,135.813644 190.074646,138.852921 
	C190.360703,139.006927 190.665787,139.094757 191.535797,139.341522 
	C197.726654,141.352982 203.371658,143.139343 209.016647,144.925705 
z"/>
<path fill="#333424" opacity="1.000000" stroke="none" 
	d="
M189.903976,138.552002 
	C179.485260,135.813644 168.895889,132.774353 158.306503,129.735062 
	C158.094330,130.458710 157.882156,131.182358 157.669983,131.906006 
	C167.299255,135.074661 176.928543,138.243332 186.808548,141.673340 
	C183.026962,141.242035 178.952133,140.732635 174.973221,139.809753 
	C170.147034,138.690338 165.394638,137.247269 160.623825,135.896500 
	C156.490814,134.726303 152.279053,133.733398 148.309204,132.144623 
	C146.988892,131.616211 145.704590,129.538025 145.571533,128.063019 
	C145.494598,127.210075 147.624664,125.619919 148.979919,125.306625 
	C150.845062,124.875465 153.058731,124.901031 154.876755,125.490562 
	C165.288788,128.866867 175.639008,132.436172 185.978165,136.032074 
	C187.324310,136.500244 188.486115,137.498413 189.903976,138.552002 
z"/>
<path fill="#2F2D11" opacity="1.000000" stroke="none" 
	d="
M199.905487,146.003326 
	C204.544189,145.830246 206.766830,147.560257 206.090836,153.007309 
	C205.427002,158.356216 206.054810,163.865433 206.315201,169.658722 
	C206.432022,170.576721 206.349426,171.140305 205.873627,172.051819 
	C205.028473,172.714874 204.576523,173.030014 204.124573,173.345154 
	C204.222565,165.831299 204.320572,158.317444 204.240662,150.444275 
	C203.153717,149.468399 202.244690,148.851837 201.059708,148.039825 
	C200.541702,147.315735 200.299652,146.787109 199.905487,146.003326 
z"/>
<path fill="#333424" opacity="1.000000" stroke="none" 
	d="
M209.060562,144.719452 
	C203.371658,143.139343 197.726654,141.352982 191.773483,139.312012 
	C197.172363,140.579681 202.879425,142.101974 208.881744,143.861008 
	C209.177002,144.097763 209.104477,144.513214 209.060562,144.719452 
z"/>
<path fill="#333424" opacity="1.000000" stroke="none" 
	d="
M187.237091,142.163605 
	C191.019531,143.042236 195.016006,144.206863 199.287170,145.650803 
	C195.524933,144.769943 191.488037,143.609756 187.237091,142.163605 
z"/>
<path fill="#2F2D11" opacity="1.000000" stroke="none" 
	d="
M205.860138,178.948013 
	C205.164536,180.386887 204.468948,181.825760 203.499405,183.488754 
	C203.356323,180.707306 203.487183,177.701752 203.860474,174.679489 
	C204.688629,176.091187 205.274384,177.519608 205.860138,178.948013 
z"/>
<path fill="#97884A" opacity="1.000000" stroke="none" 
	d="
M205.891388,178.530579 
	C205.274384,177.519608 204.688629,176.091187 204.050598,174.308929 
	C203.998322,173.955078 204.123611,173.662537 204.124084,173.503845 
	C204.576523,173.030014 205.028473,172.714874 205.740112,172.312592 
	C205.974075,174.188004 205.948349,176.150574 205.891388,178.530579 
z"/>
<path fill="#2F2D11" opacity="1.000000" stroke="none" 
	d="
M203.061264,184.052216 
	C203.161209,185.889160 203.039032,188.004272 202.824677,190.558502 
	C202.768051,188.775192 202.803589,186.552780 203.061264,184.052216 
z"/>
<path fill="#97884A" opacity="1.000000" stroke="none" 
	d="
M210.258011,179.547470 
	C210.061111,177.505127 210.044418,175.233856 210.040024,172.562546 
	C212.609039,174.416916 212.018661,176.841019 210.258011,179.547470 
z"/>
</svg>